<svg xmlns="http://www.w3.org/2000/svg" viewBox="0 0 800 600">
  <!-- Banana background pattern -->
  <defs>
    <pattern id="bananaPattern" x="0" y="0" width="80" height="120" patternUnits="userSpaceOnUse">
      <g>
        <!-- Single banana -->
        <path d="M20 20 Q30 10 40 20 Q50 30 45 50 Q40 70 35 90 Q30 100 25 90 Q20 70 15 50 Q10 30 20 20" fill="#FFD700" stroke="#B8860B" stroke-width="2"/>
        <path d="M25 25 Q30 20 35 25 Q40 35 37 50 Q35 65 32 80 Q30 85 28 80 Q25 65 23 50 Q20 35 25 25" fill="#FFED4E"/>
        <!-- Banana stem -->
        <rect x="22" y="15" width="6" height="8" fill="#8B4513" rx="3"/>
      </g>
    </pattern>
  </defs>
  
  <!-- Background with banana pattern -->
  <rect width="800" height="600" fill="url(#bananaPattern)"/>
  
  <!-- Purple monkey in center -->
  <g transform="translate(400, 300)">
    <!-- Monkey body -->
    <ellipse cx="0" cy="20" rx="80" ry="100" fill="#8B5A96" stroke="#6B4C7A" stroke-width="3"/>
    
    <!-- Monkey belly -->
    <ellipse cx="0" cy="30" rx="50" ry="70" fill="#B19CD9"/>
    
    <!-- Monkey head -->
    <circle cx="0" cy="-60" r="60" fill="#8B5A96" stroke="#6B4C7A" stroke-width="3"/>
    
    <!-- Monkey face -->
    <ellipse cx="0" cy="-50" rx="45" ry="50" fill="#B19CD9"/>
    
    <!-- Eyes -->
    <circle cx="-20" cy="-70" r="12" fill="white"/>
    <circle cx="20" cy="-70" r="12" fill="white"/>
    <circle cx="-20" cy="-70" r="8" fill="black"/>
    <circle cx="20" cy="-70" r="8" fill="black"/>
    <circle cx="-18" cy="-72" r="3" fill="white"/>
    <circle cx="22" cy="-72" r="3" fill="white"/>
    
    <!-- Nose -->
    <ellipse cx="0" cy="-55" rx="8" ry="6" fill="#9966CC"/>
    <ellipse cx="-3" cy="-57" rx="2" ry="3" fill="#6B4C7A"/>
    <ellipse cx="3" cy="-57" rx="2" ry="3" fill="#6B4C7A"/>
    
    <!-- Mouth -->
    <path d="M -15 -40 Q 0 -30 15 -40" stroke="#6B4C7A" stroke-width="3" fill="none" stroke-linecap="round"/>
    
    <!-- Ears -->
    <circle cx="-45" cy="-80" r="20" fill="#8B5A96" stroke="#6B4C7A" stroke-width="3"/>
    <circle cx="45" cy="-80" r="20" fill="#8B5A96" stroke="#6B4C7A" stroke-width="3"/>
    <circle cx="-45" cy="-80" r="12" fill="#B19CD9"/>
    <circle cx="45" cy="-80" r="12" fill="#B19CD9"/>
    
    <!-- Arms -->
    <ellipse cx="-60" cy="-10" rx="25" ry="60" fill="#8B5A96" stroke="#6B4C7A" stroke-width="3" transform="rotate(-20)"/>
    <ellipse cx="60" cy="-10" rx="25" ry="60" fill="#8B5A96" stroke="#6B4C7A" stroke-width="3" transform="rotate(20)"/>
    
    <!-- Hands -->
    <circle cx="-75" cy="35" r="20" fill="#8B5A96" stroke="#6B4C7A" stroke-width="3"/>
    <circle cx="75" cy="35" r="20" fill="#8B5A96" stroke="#6B4C7A" stroke-width="3"/>
    <circle cx="-75" cy="35" r="15" fill="#B19CD9"/>
    <circle cx="75" cy="35" r="15" fill="#B19CD9"/>
    
    <!-- Legs -->
    <ellipse cx="-30" cy="100" rx="20" ry="50" fill="#8B5A96" stroke="#6B4C7A" stroke-width="3"/>
    <ellipse cx="30" cy="100" rx="20" ry="50" fill="#8B5A96" stroke="#6B4C7A" stroke-width="3"/>
    
    <!-- Feet -->
    <ellipse cx="-30" cy="140" rx="25" ry="15" fill="#8B5A96" stroke="#6B4C7A" stroke-width="3"/>
    <ellipse cx="30" cy="140" rx="25" ry="15" fill="#8B5A96" stroke="#6B4C7A" stroke-width="3"/>
    <ellipse cx="-30" cy="140" rx="18" ry="10" fill="#B19CD9"/>
    <ellipse cx="30" cy="140" rx="18" ry="10" fill="#B19CD9"/>
    
    <!-- Tail -->
    <path d="M 70 80 Q 120 60 140 100 Q 150 120 130 140 Q 110 130 100 110" fill="#8B5A96" stroke="#6B4C7A" stroke-width="3"/>
    
    <!-- Cheeks (blush) -->
    <circle cx="-35" cy="-45" r="8" fill="#FF69B4" opacity="0.6"/>
    <circle cx="35" cy="-45" r="8" fill="#FF69B4" opacity="0.6"/>
  </g>
</svg>